<svg xmlns="http://www.w3.org/2000/svg" viewBox="0 0 50 40.63"><defs><style>.cls-1{fill:#ff9b0a;}</style></defs><title>Asset 1</title><g id="Layer_2" data-name="Layer 2"><g id="Layer_1-2" data-name="Layer 1"><g id="Header"><path class="cls-1" d="M15.72,40.63c18.87,0,29.19-15.63,29.19-29.19,0-.44,0-.89,0-1.33A20.85,20.85,0,0,0,50,4.8a20.46,20.46,0,0,1-5.89,1.62A10.31,10.31,0,0,0,48.62.74,20.43,20.43,0,0,1,42.1,3.23a10.27,10.27,0,0,0-17.48,9.36A29.1,29.1,0,0,1,3.48,1.87a10.27,10.27,0,0,0,3.18,13.7A10.15,10.15,0,0,1,2,14.28v.13a10.27,10.27,0,0,0,8.23,10.06,10.2,10.2,0,0,1-4.63.17,10.26,10.26,0,0,0,9.58,7.13,20.64,20.64,0,0,1-12.74,4.4A20,20,0,0,1,0,36a29,29,0,0,0,15.72,4.6"/></g></g></g></svg>