<svg xmlns="http://www.w3.org/2000/svg" viewBox="0 0 171.93 173.97"><defs><style>.cls-1{fill:#ff9b0a;}.cls-2{fill:#fff;}</style></defs><title>linkedin-active</title><g id="Layer_2" data-name="Layer 2"><g id="Layer_1-2" data-name="Layer 1"><path class="cls-1" d="M171.93,156.58A17.36,17.36,0,0,1,154.6,174H17.33A17.36,17.36,0,0,1,0,156.58V17.39A17.36,17.36,0,0,1,17.33,0H154.6a17.36,17.36,0,0,1,17.33,17.39Z"/><path class="cls-2" d="M55.93,42.54c0,6.39-4.72,11.56-12.48,11.56-7.3,0-12-5.17-12-11.56C31.43,36,36.3,31,43.75,31S55.78,36,55.93,42.54ZM32,137.65V63.23H55.17v74.42Z"/><path class="cls-2" d="M69,87c0-9.28-.3-17-.6-23.74H88.49l1.07,10.35H90c3-4.87,10.5-12,23-12,15.21,0,26.63,10.2,26.63,32.11v44H116.5V96.41c0-9.59-3.35-16.13-11.72-16.13-6.4,0-10.2,4.41-11.87,8.67a16.65,16.65,0,0,0-.77,5.79v42.91H69Z"/></g></g></svg>